<?xml version="1.0" encoding="UTF-8" standalone="no"?>
<!-- Created with Inkscape (http://www.inkscape.org/) -->

<svg
   width="156.5"
   height="68.5"
   viewBox="0 0 156.5 68.5"
   version="1.1"
   id="svg1"
   xmlns="http://www.w3.org/2000/svg"
   xmlns:svg="http://www.w3.org/2000/svg">
  <defs
     id="defs1" />
  <g
     id="layer3"
     style="display:inline;opacity:0"
     transform="translate(0,-132)">
    <rect
       style="display:inline;fill:#ffffff;stroke:#000000;stroke-width:1;stroke-dasharray:none;stroke-dashoffset:0;stroke-opacity:1;paint-order:fill markers stroke"
       id="rect1-5-85"
       width="155.5"
       height="67.5"
       x="0.5"
       y="200.5" />
    <rect
       style="display:inline;fill:#000000;fill-opacity:1;stroke:#ffffff;stroke-width:1;stroke-dasharray:none;stroke-dashoffset:0;stroke-opacity:1;paint-order:fill markers stroke"
       id="rect1-5-3"
       width="155.5"
       height="67.5"
       x="0.5"
       y="132.5" />
  </g>
  <path
     style="font-weight:bold;font-size:24px;line-height:1.2;font-family:Sans;-inkscape-font-specification:'Sans, Bold';white-space:pre;fill:#ffffff;stroke-width:0.5;paint-order:stroke fill markers"
     d="m 70.070312,40 h -4.652343 l -1.207032,-3.52734 h -6.46875 L 56.535156,40 H 52 L 58.445312,22.55078 H 63.625 Z m -6.949218,-6.72656 -2.144532,-6.25782 -2.144531,6.25782 z M 86.230469,25.92578 H 80.78125 V 40 h -4.5 V 25.92578 h -5.449219 v -3.375 H 86.230469 Z M 101.55859,40 H 88.9375 V 22.55078 h 12.62109 v 3.375 h -8.144528 v 3.01172 h 7.558598 v 3.375 h -7.558598 v 4.3125 h 8.144528 z m 30.26953,0 h -4.47656 V 28.31641 l -3.23437,7.58203 h -3.10547 l -3.23438,-7.58203 V 40 h -4.24218 V 22.55078 h 5.22656 l 3.92578,8.75391 3.91406,-8.75391 h 5.22656 z M 151.63281,22.55078 145.19922,33.25 V 40 h -4.5 v -6.53906 l -6.53906,-10.91016 h 5.10937 l 3.77344,6.75 3.64453,-6.75 z"
     id="text1-8"
     aria-label="ATE MY" />
  <g
     id="g1"
     transform="translate(-33.087953,-128.69592)">
    <path
       style="fill:#00ff00;fill-opacity:1;stroke:#ffffff;stroke-width:11.0045;stroke-linecap:butt;stroke-linejoin:miter;stroke-dasharray:none;stroke-dashoffset:0;stroke-opacity:1;paint-order:fill markers stroke"
       d="m 89.54331,189.99999 -4.89568,-5.91828"
       id="path3-1-2-1" />
    <path
       style="fill:#00ff00;fill-opacity:1;stroke:#ffffff;stroke-width:11.0045;stroke-linecap:butt;stroke-linejoin:miter;stroke-dasharray:none;stroke-dashoffset:0;stroke-opacity:1;paint-order:fill markers stroke"
       d="M 83.42371,182.60214 68.39202,163.99999"
       id="path5-1-3-5" />
    <path
       id="path8-5-3-2"
       style="fill:#ffffff;fill-opacity:1;stroke:none;stroke-width:12.1633;stroke-linecap:butt;stroke-linejoin:miter;stroke-dasharray:none;stroke-dashoffset:0;stroke-opacity:1;paint-order:fill markers stroke"
       d="m 54.769859,132.84266 11.341612,13.70776 -3.173207,11.28658 -11.677886,1.00271 -3.216004,-3.88855 v 12.5094 l 1.766971,1.85868 14.808292,-0.70924 9.012143,-7.44694 3.46669,-14.41699 -9.800869,-12.7234 z" />
    <path
       id="rect9-4-7"
       style="fill:#ffffff;fill-opacity:1;stroke:none;stroke-width:3.13041;stroke-linecap:butt;stroke-linejoin:miter;stroke-dasharray:none;stroke-dashoffset:0;stroke-opacity:1;paint-order:stroke fill markers"
       d="m 37.087953,132.69592 v 62.60815 h 9.391221 v -7.04342 h -4.69561 v -1.5652 h 4.69561 v -6.26082 h -4.69561 v -1.5652 h 4.69561 v -6.26082 h -4.69561 v -1.5652 h 4.69561 v -6.26081 h -4.69561 v -1.56521 h 4.69561 v -6.26081 h -4.69561 v -1.56521 h 4.69561 v -6.26081 h -4.69561 v -1.5652 h 4.69561 v -6.26082 h -4.69561 v -1.5652 h 4.69561 v -7.04342 z" />
  </g>
</svg>
